<svg width="68" height="24" viewBox="0 0 68 24" fill="none" xmlns="http://www.w3.org/2000/svg">
<g clip-path="url(#clip0_3_363)">
<path d="M17.369 9.59798H1.16887L0 12.7986H16.2002L17.369 9.59798ZM19.1199 4.79747H2.91949L1.75061 7.99778H17.9508L19.1199 4.79747ZM19.7048 3.19699H3.50435L4.6735 -0.00332974H20.8737L19.7048 3.19699Z" fill="#00AAFF"/>
<path d="M34.1345 13.7673V13.8337C34.8678 14.0994 35.5677 14.5648 35.9347 14.8638C37.0679 15.7939 37.5679 17.0233 37.5679 18.6177C37.5679 21.2426 36.1677 23.1363 33.8678 23.7342C33.1675 23.9336 32.4342 24.0003 31.0674 24.0003H24.1006V4.79745H30.2675C31.5341 4.79745 32.4009 4.86359 33.1675 5.06318C35.401 5.66107 36.8679 7.18945 36.8679 9.61438C36.8679 10.9102 36.4013 12.0067 35.6343 12.7375C35.301 13.0697 34.8344 13.4686 34.1345 13.7673ZM27.9673 15.7939V20.8437H30.6344C31.4341 20.8437 32.1676 20.7772 32.7012 20.279C33.2342 19.7807 33.4678 19.1495 33.4678 18.3191C33.4678 17.6876 33.3009 17.0897 32.9676 16.6575C32.4009 15.96 31.7007 15.7939 30.5008 15.7939H27.9673ZM27.9339 12.4718H30.1008C30.7674 12.4718 31.1007 12.4718 31.4341 12.3718C32.3342 12.106 32.9009 11.3091 32.9009 10.2126C32.9009 8.91706 32.3009 8.35209 31.4341 8.08607C31.0674 7.98672 30.7008 7.9535 29.9672 7.9535H27.9339V12.4718ZM43.3681 24.0003V8.01993H37.8012V4.79745H53.2689L52.169 8.01993H47.2351V24.0003H43.3681ZM54.4691 24.0003V4.79745H67.0031L65.9032 8.01993H58.3028V12.2722H61.4031C63.9033 12.2722 65.203 12.8707 66.1032 13.6347C66.8034 14.2326 68.0033 15.5613 68.0033 18.1862C68.0033 20.7772 66.7698 22.2059 65.7365 22.937C64.5363 23.7675 63.2697 24.0003 60.7029 24.0003H54.4691ZM58.3028 20.7772H61.2029C62.3028 20.7772 62.9695 20.5115 63.4364 19.9135C63.6697 19.6146 64.003 19.0831 64.003 18.0865C64.003 17.0897 63.6697 16.3918 63.0031 15.8936C62.6031 15.5948 62.0698 15.4287 61.1696 15.4287H58.3028V20.7772Z" fill="#0A2896"/>
</g>
<defs>
<clipPath id="clip0_3_363">
<rect width="68" height="24" fill="white"/>
</clipPath>
</defs>
</svg>
